Coordinates
version=1
nRows=17
nColumns=24
inDegrees=yes

Units are S.I. units (second, meters, Newtons, ...)
Angles are in degrees.

endheader
time	pelvis_tilt	pelvis_list	pelvis_rotation	pelvis_tx	pelvis_ty	pelvis_tz	hip_flexion_r	hip_adduction_r	hip_rotation_r	knee_angle_r	ankle_angle_r	subtalar_angle_r	mtp_angle_r	hip_flexion_l	hip_adduction_l	hip_rotation_l	knee_angle_l	ankle_angle_l	subtalar_angle_l	mtp_angle_l	lumbar_extension	lumbar_bending	lumbar_rotation
      1.14450000	      1.09010016	      1.04360732	     -4.27593934	      0.21966862	      1.06234313	      0.27529412	     15.22513701	     -6.41522866	     -6.62147165	    -73.83770742	      3.87627445	     -5.36876353	      8.12338314	     12.66539521	      0.14957305	     -0.19636662	    -24.92788039	     15.68469851	      7.39903799	      3.74649343	    -11.14007343	     -3.50714581	      2.85452225
      1.14866667	      1.09409259	      0.90704870	     -4.33532028	      0.22518438	      1.06386326	      0.27544272	     15.77795887	     -6.17364849	     -6.69783416	    -73.62997379	      4.13330982	     -5.06109785	      8.15940055	     12.03813581	     -0.00772403	     -0.33487585	    -24.36192348	     15.68947620	      7.52836070	      3.76172315	    -11.15821333	     -3.37741792	      2.81060176
      1.15283333	      1.09411913	      0.75780997	     -4.38578075	      0.23068351	      1.06534969	      0.27559114	     16.31570099	     -5.91214370	     -6.78335529	    -73.34792670	      4.37181403	     -4.77079512	      8.19106023	     11.41611719	     -0.17730629	     -0.46591473	    -23.79309087	     15.66140258	      7.63763626	      3.77293790	    -11.17969388	     -3.23578986	      2.76210494
      1.15700000	      1.12373639	      0.63276750	     -4.41008097	      0.23620307	      1.06681848	      0.27568056	     16.80153989	     -5.69794436	     -6.90731080	    -73.01033503	      4.64923314	     -4.41473058	      8.24124105	     10.76193733	     -0.30993874	     -0.57947460	    -23.21419572	     15.67276110	      7.77947078	      3.79503120	    -11.22077422	     -3.11057766	      2.68211954
      1.16116667	      1.13608176	      0.50809886	     -4.42843174	      0.24170591	      1.06821004	      0.27576683	     17.29242651	     -5.47973760	     -7.03447636	    -72.61157974	      4.90450307	     -4.09332522	      8.29475745	     10.12976949	     -0.44048692	     -0.68084435	    -22.63580955	     15.65333210	      7.89085071	      3.81844408	    -11.25310584	     -2.98440207	      2.59649636
      1.16533333	      1.13146665	      0.36760390	     -4.43413521	      0.24720158	      1.06953511	      0.27584477	     17.78115561	     -5.23910162	     -7.17158982	    -72.14325580	      5.13869908	     -3.80766444	      8.33698617	      9.52275386	     -0.58827301	     -0.76859750	    -22.06770705	     15.60986075	      7.99104551	      3.83501511	    -11.27122520	     -2.83896253	      2.52091748
      1.16950000	      1.15283014	      0.24683411	     -4.41979912	      0.25270275	      1.07084541	      0.27587111	     18.22279334	     -5.03662051	     -7.33448912	    -71.61968665	      5.39476728	     -3.49502855	      8.38865014	      8.88828516	     -0.70520817	     -0.83452438	    -21.49077603	     15.58529145	      8.09142375	      3.85727556	    -11.31605230	     -2.71026729	      2.41164066
      1.17366667	      1.17727762	      0.12301087	     -4.38571084	      0.25820137	      1.07209123	      0.27585103	     18.64182889	     -4.84063475	     -7.52301651	    -71.03813433	      5.64144260	     -3.20987398	      8.45655500	      8.25862723	     -0.82144164	     -0.88442547	    -20.92391125	     15.57408705	      8.19162437	      3.89021488	    -11.35958160	     -2.55706152	      2.27211845
      1.17783333	      1.20155801	      0.00054785	     -4.34405446	      0.26369085	      1.07329158	      0.27583145	     19.04359904	     -4.64476763	     -7.71405751	    -70.39686831	      5.87582262	     -2.95322655	      8.52377063	      7.63305800	     -0.93552027	     -0.92450726	    -20.35892929	     15.54142718	      8.27504632	      3.92310378	    -11.41005261	     -2.41099113	      2.14015257
      1.18200000	      1.22120362	     -0.11850691	     -4.28872869	      0.26917201	      1.07440988	      0.27578102	     19.43474857	     -4.45810264	     -7.91659829	    -69.70434904	      6.10620957	     -2.71830124	      8.58852399	      7.02263992	     -1.04425773	     -0.95162836	    -19.80796960	     15.51223138	      8.35344643	      3.95597126	    -11.45556765	     -2.26679079	      2.00099902
      1.18616667	      1.23109246	     -0.23117823	     -4.22244454	      0.27464296	      1.07543908	      0.27571082	     19.82231988	     -4.28188651	     -8.12714721	    -68.96350956	      6.33017385	     -2.51533790	      8.66227329	      6.43097258	     -1.14484866	     -0.96120025	    -19.26661502	     15.48329931	      8.42841082	      3.99642484	    -11.49649628	     -2.12104648	      1.84122802
      1.19033333	      1.24859017	     -0.33434140	     -4.14650209	      0.28009570	      1.07641167	      0.27563203	     20.18708103	     -4.11910621	     -8.34077664	    -68.17368118	      6.55459283	     -2.34473615	      8.75176863	      5.83745356	     -1.23371898	     -0.95547844	    -18.72917474	     15.43770698	      8.48701126	      4.04873093	    -11.54989299	     -1.98794170	      1.66177346
      1.19450000	      1.22243676	     -0.45508382	     -4.05851462	      0.28556480	      1.07724075	      0.27553588	     20.57766110	     -3.93659729	     -8.56689074	    -67.32480492	      6.75499770	     -2.19988684	      8.79240652	      5.31208861	     -1.34883644	     -0.96277279	    -18.23942720	     15.42224071	      8.55864902	      4.07155021	    -11.53934209	     -1.83979688	      1.56736140
      1.19866667	      1.23956965	     -0.55066490	     -3.95987574	      0.29100989	      1.07806098	      0.27539383	     20.91096830	     -3.79695874	     -8.80069366	    -66.44071069	      6.96060016	     -2.06140742	      8.85625836	      4.73679610	     -1.42588573	     -0.92926004	    -17.72947704	     15.43294371	      8.61410217	      4.11243115	    -11.59209363	     -1.69381358	      1.35941392
      1.20283333	      1.22957363	     -0.64957713	     -3.85536863	      0.29645444	      1.07876823	      0.27526348	     21.25622242	     -3.64911515	     -9.03304533	    -65.50362906	      7.15342971	     -1.96364781	      8.91356697	      4.20447126	     -1.51216222	     -0.89621289	    -17.24674795	     15.42708614	      8.66174984	      4.15026257	    -11.60905832	     -1.55128677	      1.18699426
      1.20700000	      1.21192982	     -0.74369269	     -3.74327350	      0.30188697	      1.07938843	      0.27512083	     21.59488482	     -3.50939473	     -9.26709782	    -64.52100985	      7.34144134	     -1.88871869	      8.97001603	      3.69099959	     -1.59376461	     -0.85171943	    -16.77987252	     15.42901554	      8.70549385	      4.18988505	    -11.62188791	     -1.41191221	      1.00478305
      1.21116667	      1.18063403	     -0.83825063	     -3.63079406	      0.30730459	      1.07990440	      0.27499088	     21.93406201	     -3.36513309	     -9.49330747	    -63.49276890	      7.53135183	     -1.83909004	      9.00436905	      3.20867687	     -1.68112377	     -0.82323956	    -16.34555068	     15.42290462	      8.76038509	      4.21409361	    -11.61835308	     -1.28569846	      0.87988431
